<?xml version="1.0" encoding="utf-8" ?>	<!-- Generator: Assembly 2.2 - http://assemblyapp.co -->	<svg version="1.1" xmlns="http://www.w3.org/2000/svg" xmlns:xlink="http://www.w3.org/1999/xlink" width="2048.00" height="2048.00" viewBox="0 0 2048.0 2048.0">		<g id="document" transform="matrix(1,0,0,1,1024.0,1024.0)">			<g>				<path d="M46.3843,-461.925 L-526.07,16.1037 C-763.747,214.577 -795.302,565.624 -596.829,803.302 C-398.356,1040.98 -47.3087,1072.53 190.369,874.061 L762.823,396.032 C1000.5,197.559 1032.06,-153.489 833.582,-391.166 C636.32,-627.394 284.062,-660.398 46.3843,-461.925 Z " fill="#f25d5a" fill-opacity="1.00" />				<path d="M-317.685,306.457 C44.5304,311.531 341.86,22.4179 346.935,-339.797 C352.01,-702.012 62.8964,-999.342 -299.319,-1004.42 C-661.534,-1009.49 -958.864,-720.378 -963.938,-358.163 C-969.013,4.05188 -679.9,301.382 -317.685,306.457 Z " fill="#00b4ce" fill-opacity="1.00" />			</g>		</g>	</svg>