<?xml version="1.0" standalone="no"?>
<!DOCTYPE svg PUBLIC "-//W3C//DTD SVG 20010904//EN"
 "http://www.w3.org/TR/2001/REC-SVG-20010904/DTD/svg10.dtd">
<svg version="1.0" xmlns="http://www.w3.org/2000/svg"
 width="700.000000pt" height="700.000000pt" viewBox="0 0 700.000000 700.000000"
 preserveAspectRatio="xMidYMid meet">
<metadata>
Created by potrace 1.11, written by Peter Selinger 2001-2013
</metadata>
<g transform="translate(0.000000,700.000000) scale(0.100000,-0.100000)"
fill="#000000" stroke="none">
<path d="M2407 6934 c-1 -1 -56 -4 -121 -8 -65 -4 -122 -8 -125 -10 -3 -2 -33
-7 -66 -11 -32 -3 -62 -8 -66 -11 -4 -2 -24 -6 -45 -9 -72 -11 -290 -76 -374
-112 -194 -83 -365 -180 -513 -291 -101 -76 -312 -277 -378 -361 -19 -24 -39
-49 -45 -55 -7 -7 -47 -64 -89 -127 -83 -124 -196 -344 -245 -479 -39 -106
-96 -328 -105 -406 -4 -32 -9 -62 -11 -65 -5 -10 -18 -216 -18 -299 1 -427
124 -848 352 -1205 25 -38 48 -72 51 -75 3 -3 19 -24 35 -48 91 -133 278 -323
447 -452 51 -39 99 -74 106 -79 11 -6 8 -21 -17 -77 -56 -124 -95 -248 -135
-430 -35 -158 -38 -433 -9 -634 47 -317 216 -690 423 -935 330 -389 795 -634
1291 -680 65 -6 316 -7 345 -1 11 2 47 7 80 10 80 9 271 52 337 76 29 10 73
26 98 35 127 46 306 143 424 229 61 44 349 279 416 339 14 13 48 41 75 62 28
22 52 43 55 46 3 3 73 61 155 129 83 69 152 127 155 130 3 3 73 61 155 130 83
69 159 132 170 142 11 9 110 92 220 183 110 92 211 176 225 188 14 12 120 101
235 197 308 256 379 323 496 470 182 229 335 574 374 845 3 22 8 46 11 53 6
21 18 188 17 272 0 79 -9 221 -19 280 -8 53 -44 222 -49 230 -2 3 -6 17 -9 31
-17 91 -131 342 -219 484 -63 102 -206 275 -299 363 -188 178 -450 339 -668
412 -74 25 -199 61 -225 66 -16 3 -48 9 -70 14 -169 37 -474 42 -642 11 -23
-5 -45 -5 -50 -2 -4 3 -24 42 -43 86 -64 150 -192 367 -282 479 -261 329 -585
570 -957 715 -147 57 -348 112 -462 126 -24 3 -55 7 -69 10 -33 7 -318 23
-323 19z"/>
</g>
</svg>
